#!OML:ASF F:\VICON\USERDATA\INSTALL\rory3\rory3.ASF
:FULLY-SPECIFIED
:DEGREES
78
root 0.588059829166401 17.06491496458551 37.37616441000584 1.1122034482990941 -0.5907174374565641 5.01731619213005
lfemur -7.276974015129998 -2.8780343274832902 -24.467679037714987
ltibia 43.479333227214
lfoot 1.5210939195936075 -0.586170790294807
ltoes -1.1020554380623073
rfemur -31.401802618197433 1.6704350522422693 23.922951360877228
rtibia 67.46252352440933
rfoot -6.026204059204347 -12.92463307556623
rtoes 5.189243756955576
lowerback 13.341503798832735 0.5783885487922971 -2.175532563120689
upperback -0.2779323315620402 0.5078601128116583 0.5836914018091013
thorax -7.515105004340926 0.3226515193130081 3.1727601763040427
lowerneck -18.520106973914483 -2.995056451755436 -2.743486065002018
upperneck 18.005097843340998 -3.579055386683428 1.8407300570573881
head 8.621252271487364 -1.6367954073676205 0.6781385756438849
lclavicle -2.261834053939576e-15 6.846274524304542e-16
lhumerus -38.76127125750075 -9.458446179306247 91.59776136137405
lradius 65.43079529420443
lwrist 15.772894776854198
lhand -26.6550571776929 14.200886739704448
lfingers 7.125019999999999
lthumb 0.2760173736657412 44.48176123168342
rclavicle -2.262773439318923e-15 6.839799150846411e-16
rhumerus -36.52240275139601 -6.0419146215256205 -89.38311399569668
rradius 63.344443611512695
rwrist -1.1105957306292846
rhand -17.47367334338169 29.626766922639128
rfingers 7.125019999999999
rthumb 8.421218547771923 0.20783874188265616
79
root 0.5789663930680564 17.107128494718005 37.89971752672674 1.529427478244627 -1.006008944509907 4.975259316758759
lfemur -6.552913054647119 -3.0450204917773322 -24.616083400515723
ltibia 42.32239440729404
lfoot 2.9159897332984834 -0.2655939261248812
ltoes -1.4430066411505003
rfemur -31.98396665802576 2.3196323475515235 23.772505849684087
rtibia 64.77350300755332
rfoot -4.952813610918887 -13.30907967850101
rtoes 3.4257054158180598
lowerback 13.36485477098412 0.4393046329002074 -2.3152795927398317
upperback -0.30051951872284877 0.25373050225759064 0.6922665658964227
thorax -7.540200702437512 0.21941334429985132 3.373876832561712
lowerneck -18.632759139457267 -2.996694945719867 -2.6357232501293906
upperneck 17.778206960697368 -3.6593003735448266 1.98695774327356
head 8.605081357984988 -1.6519795716456547 0.6995174822208683
lclavicle -2.2647458174843694e-15 6.825863015332554e-16
lhumerus -37.98175095094766 -9.80705407183341 91.56307203335922
lradius 66.31539153367665
lwrist 15.554235429940102
lhand -26.325350791774543 14.009943765926176
lfingers 7.125019999999999
lthumb 0.6017707001672713 44.3101848908092
rclavicle -2.263133516275275e-15 6.837273211235406e-16
rhumerus -36.8070396321548 -5.348437982895991 -89.42614354810141
rradius 63.38840440531832
rwrist -1.2230581226645332
rhand -17.191616831530876 29.75385151710118
rfingers 7.125019999999999
rthumb 8.73012922061428 0.21253659706498795
80
root 0.5735458221639859 17.16876583310228 38.03792361033941 1.9213404147125852 -1.2870572601304713 4.890858557451034
lfemur -5.4427351214964705 -3.266059217098243 -24.739707064008478
ltibia 40.26528732212442
lfoot 4.694805501622136 -0.8843272557551742
ltoes -3.095958384135975
rfemur -31.89519690626277 2.6888627704334533 23.825929211019055
rtibia 60.42122425692403
rfoot -3.460311919347653 -13.17221702157941
rtoes 2.790824289266205
lowerback 13.300605475167998 0.11923342740975418 -2.5378568835988533
upperback -0.4192005881610202 -0.23016907518409724 0.8286009850440076
thorax -7.577868555369371 0.006304408581532361 3.711227045746191
lowerneck -18.502333434838278 -2.9745893111215533 -2.6166756463040137
upperneck 17.571529626619732 -3.6680155079128043 2.1612659194735295
head 8.550844939867893 -1.6378066404023481 0.7599807140434895
lclavicle -2.263960544442783e-15 6.831339228405586e-16
lhumerus -37.3416187028898 -9.579772661006896 91.53057377038914
lradius 67.62821152183378
lwrist 17.191730344901472
lhand -26.036364521043218 13.224031391732693
lfingers 7.125019999999999
lthumb 0.8801163514277813 43.30014441042876
rclavicle -2.260426228666012e-15 6.856256317835775e-16
rhumerus -37.37558435583258 -4.576743365199086 -89.53977989946587
rradius 63.58377394148739
rwrist -1.5932381919321343
rhand -16.78879970408426 29.927966712403126
rfingers 7.125019999999999
rthumb 9.218459847215716 0.26168280112233866
81
root 0.540089355604909 17.075340292429207 38.77151026467114 1.842859514505463 -1.5473677501190182 4.523036360351869
lfemur -4.219256975503684 -3.484843204628141 -24.40988003825953
ltibia 39.41338567371274
lfoot 4.333822956026671 -1.49815611221045
ltoes -4.014480673338305
rfemur -31.152639223078776 2.9989865617286986 24.162396953970198
rtibia 55.50661023268273
rfoot -2.0145282768626878 -13.138064802530787
rtoes 3.932908592055036
lowerback 13.571150560194644 -0.18440028310708434 -2.5808020952217285
upperback -0.36851855951060547 -0.6332325584793579 1.0438790158895448
thorax -7.696537266391083 -0.16897705124323958 4.123124555017227
lowerneck -18.27877500765332 -2.9932959618746215 -2.637535860160614
upperneck 17.423509437403503 -3.75742920740765 2.2875811003709883
head 8.501300498364131 -1.6720637578584145 0.7909013872907367
lclavicle -2.2610936353119917e-15 6.85140592606607e-16
lhumerus -36.83167301227061 -9.504967858395798 91.40380490685273
lradius 69.15974558077355
lwrist 19.555718223634496
lhand -26.11869247804227 12.564020420604088
lfingers 7.125019999999999
lthumb 0.7364957206059459 42.694938506802885
rclavicle -2.2633482691549106e-15 6.835769352361818e-16
rhumerus -38.089174865139775 -3.7648380753021717 -89.50450129204442
rradius 63.913960609578886
rwrist -1.7118991181967655
rhand -16.533972673473052 30.110763942339716
rfingers 7.125019999999999
rthumb 9.550439117021938 0.47355886066100406
